<svg class="defs-only"  xmlns="http://www.w3.org/2000/svg">
	<path id="suit" d="M180.85,324c1.13-14.05,2.25-28.1,3.41-42.14c0.36-4.36,0.83-8.7,0.37-13.08c-0.4-3.83,1.08-7.38,1.56-11.07
		c1.68-12.72,1.22-25.15-4.58-36.95c-0.63-1.28-0.93-2.72-0.97-4.53c14.75,16.62,34.9,23.97,54.2,32.76
		c0,24.13-0.04,48.25,0.06,72.37c0.01,2.24-0.45,2.71-2.69,2.69C215.1,323.95,197.98,324,180.85,324z M73.6,324
		c-0.09-1.36-0.24-2.72-0.27-4.09c-0.33-14.74,0.88-29.44,1.38-44.16c0.57-16.98,1.76-33.89,7.11-50.2
		c0.22-0.67,0.62-1.41-0.12-2.15c-1.47,0.24-2.23,1.49-3,2.52c-6.28,8.43-15.61,13.11-24.47,17.41
		c-9.81,4.77-19.75,9.55-29.97,13.52c-2.55,0.99-3.18,2.38-3.17,4.96c0.09,20.73,0.03,41.45,0.02,62.18C38.6,324,56.1,324,73.6,324z
		"/>
	<path id="tie" d="M113.35,324c1.1-4.33-0.13-7.91-3.24-11.09c-1.28-1.31-2.05-3.12-3.07-4.69c-0.88-1.37-1.02-2.66-0.13-4.18
		c4.6-7.89,9.99-15.17,16.34-21.74c0.9-0.94,1.95-0.79,3.09-0.87c4.26-0.28,8.81,0.91,12.56-2.27c0.79-0.67,1.35-0.01,1.94,0.42
		c6.82,4.94,12.84,10.67,17.44,17.78c1.13,1.75,1.4,2.94-1.1,4.19c-2.22,1.1-2.75,4.06-3.85,6.25c-2.6,5.17-5.42,10.31-6.23,16.19
		C135.85,324,124.6,324,113.35,324z"/>
	<path id="hair" d="M186.16,154.8c-0.8-2.24,0.24-3.99,0.42-5.8c0.48-4.96-0.83-9.69-2.01-14.36c-1.61-6.38-2.29-12.78-1.73-19.3
		c0.7-8.02-0.98-15.94-0.74-23.93c0.04-1.5-0.64-2.87-2.17-3.68c-2.63-1.38-3.79-3.88-4.42-6.58c-0.75-3.2-2.16-5.97-5.23-7.26
		c-3.96-1.66-7.01-4.58-10.54-6.83c-1.83-1.17-4.46,0.38-5.99-1.77c-1.87,1.47-3.46,2.84-3.48,5.73c-0.01,2.5-3.74,2.98-4.33,5.66
		c-0.13,0.58-1.35-0.02-1.92-0.5c-0.98-0.81-2.05-1.35-3.39-1.46c-0.6,1.77,1.09,3.11,0.7,4.68c-1.01,1.01-1.83-0.81-3.18,0.25
		c7.48,8.55,5.16,14.27-4.78,17.42c-0.7-1.56,0.54-1.59,1.3-2.12c1.06-0.73,1.91-1.61,2.21-2.9c0.71-3-3.27-10.72-6.23-11.86
		c-2.04-0.79-2.26-2.54-2.44-4.25c-0.24-2.32-0.87-1.83-2.53-0.92c-5.93,3.26-10.66,7.69-14.38,13.32
		c-0.77,1.17-1.73,2.44-3.42,3.06c-0.82-1.9,0.85-3.32,0.79-5.35c-2.41,1-4.01,2.96-5.92,4.3c-2.25,1.58-3.95,3.82-7.12,2.52
		c-0.18-0.08-0.57,0.02-0.7,0.17c-4.54,5.44-3.14-0.74-3.6-2.02c-2.04-5.68-1.95-11.48-0.27-17.27c0.21-0.71,0.57-1.57-0.23-2.03
		c-0.96-0.55-1.68,0.24-2.2,0.91c-0.68,0.88-1.23,1.88-1.77,2.86c-1.47,2.66-2.33,5.51-5.29,7.4c-1.95,1.24-2.58,4.53-2.33,6.84
		c1.36,13.04-0.83,25.82-2.07,38.69c-0.42,4.4-2.49,8.33-2.99,12.72c-0.47,4.07-0.4,7.95,0.93,11.81c0.31,0.89,1.01,2.11-0.18,2.66
		c-1.33,0.61-2.02-0.66-2.49-1.65c-1.3-2.77-1.46-6.08-4.27-8.12c-0.67-0.48-0.59-1.85,0.07-2.43c3.03-2.66,1.59-6.34,2.34-9.51
		c0.2-0.84,0.13-1.85-0.56-2.47c-5.14-4.59-4.58-11.07-6.13-16.97c-2.35-8.93-2.38-18-3.42-27.01c-0.43-3.7-0.01-7.26,0.62-10.79
		c0.71-3.95,0.92-7.64,0.22-11.73c-0.69-4.01,1.6-7.75,5.43-10.21c1.36-0.87,4.68-0.88,3.08-4.25c-0.08-0.16,1.85-1.37,2.93-1.94
		c0.94-0.5,2.47-0.33,2.52-1.79c0.06-1.52-1.33-1.54-2.41-1.8c-1.16-0.28-2.29-0.95-2.16-2.18c0.13-1.23,0.97-2.21,2.54-2.24
		c1.98-0.04,2.78-0.89,1.69-2.88c-0.72-1.32-0.26-2.91,0.56-3.71c1.05-1.02,2.46-0.34,3.72,0.5c1.83,1.21,3.08,0.97,2.63-1.66
		c-0.06-0.33-0.56-0.83-0.07-0.93c4.74-0.97,3-4.21,2.44-6.97c-0.33-1.64,0.05-2.29,1.84-2.16c1.06,0.08,1.95,0.32,2.75,0.95
		c1.71,1.34,3.9,0.97,5.75,1.18c3.09,0.36,0.03-3.42,2.55-4.1c0.54,0.25,0.47,2.14,1.92,1.71c1.28-0.39,1.52-1.65,1.4-2.79
		c-0.4-3.73,3.38-6.21,2.83-10.13c-0.2-1.4,1.27-1,1.94,0.05c1.64,2.57,3.35,2.65,5.29,0.26c1.88-2.31,4.75-2.81,7.39-3.21
		c2.44-0.36,4.78-0.31,7.12-1.64c1.59-0.91,3.65-0.29,2.79,2.51c-0.43,1.42-0.59,2.92,0.88,3.61c1.47,0.7,2.95-0.44,3.44-1.56
		c1.79-4.14,6.01-2.97,9.01-4.37c1.42-0.66,1.37,0.63,1.37,1.76c-0.01,1.87-1.31,3.85,0.16,5.75c1.86-0.62,1.53-3.43,3.9-3.31
		c0.09,0.28,0.25,0.6,0.3,0.93c0.87,6.32,3.79,8.38,10.13,7.14c3.81-0.75,11.97,3.22,14.07,7.11c2.03,3.74,4.44,6.93,8.8,8.02
		c1.45,0.36,1.62,1.79,2.46,2.64c1.58,1.59,2.98,3.89,6.16,1.32c-0.73,4.32,1.63,6.54,4.82,7.94c5.12,2.25,4.73,4.46,3.04,9.5
		c-0.96,2.86-2.83,5.36-0.5,8.31c0.14,0.18,0.27,0.62,0.21,0.66c-4.48,3.11,0.84,3.19,1.46,4.7c1.12,2.76,2.67,5.4,3.37,8.25
		c1.17,4.76,1.25,9.61,1.09,14.59c-0.19,5.69-1.7,11.16-1.43,17.02c0.25,5.56-2.59,11.3-3.59,17.08c-0.32,1.82-2.3,3.22-3.58,4.65
		c-3.57,3.99-2.76,8.04-0.85,12.12c1.3,2.79,1.05,4.68-1.77,6.08c-1.15,0.57-1.17,1.84-1.6,2.85
		C188.49,151.86,188.24,153.69,186.16,154.8z"/>
	<path id="face" d="M87.84,209.29c2.75,1.77,3.79,4.78,5.66,7.15c4.26,5.43,9.34,10.06,14.17,14.88c4.34,4.32,10.51,4.63,16.44,4.66
		c0.8,0,1.41-0.48,1.88-1.09c2.13-2.76,5.3-2.74,7.37-1.02c5.04,4.18,9.81,1.51,14.66,0.28c2.84-0.72,4.99-2.75,7.27-4.51
		c0.9-0.69,2.07-2.08,3.19-0.72c0.83,1.01-0.28,2.49-1.08,2.85c-3.44,1.55-5.33,5.15-8.89,6.44c-4.45,1.61-7.57,5.45-12.42,6.68
		c-4.14,1.05-8.1,1.05-12.19,0.82c-2.11-0.12-4.21-0.6-6.32-0.62c-2.06-0.02-3.46-0.62-4.57-2.5c-1.58-2.69-4.58-3.82-7.13-5.29
		c-4.39-2.53-6.98-6.21-8.94-10.8c-1.38-3.24-3.81-6.04-5.82-9C89.44,215.03,88.44,212.29,87.84,209.29z M117.35,132.29
		c-7.4-5.72-16.11-6.59-24.96-7.17c-3.1-0.2-5.87,0.31-8.45,2.11c-0.83,0.58-1.86,0.91-1.8,2.1c0.07,1.21,1.01,1.6,2.05,1.81
		c1.38,0.28,3.14,0.65,2.45,2.46c-0.81,2.12-0.53,3.84,1.18,4.91c1.89,1.18,2.99-1.09,4.49-1.72c0.44-0.19,0.79-0.59,1.2-0.88
		c1.69-1.19,2.65-1.06,3.61,1.12c2.15,4.91,6.25,5.33,9.41,0.96c1.61-2.23,2.65-2.02,4.25-0.2c1.33,1.51,3.18,2.12,5.1,1.48
		c1.86-0.62,3.38,0.01,5.5,1.07C121.23,136.62,119.91,134.27,117.35,132.29z M162.8,125.11c-6.85,0.54-13.39,2.4-19.42,6.05
		c-2.66,1.61-2.82,4.23-4.01,6.45c-0.24,0.44,0.13,1.33,0.45,1.17c3.07-1.51,6.85,1.44,9.59-1.43c2.05-2.15,3.14-1.99,4.61,0.71
		c1.96,3.61,5.48,4.08,8.03,1.52c3.36-3.36,3.63-3.44,8.45-2.22c1.25,0.32,2.62,0.69,3.18-0.88c0.54-1.5-0.65-2.4-1.79-2.86
		c-2.78-1.12-5.66-1.81-8.71-1.84c-2.02-0.02-4.18,0.36-6.68-1.28c5.31-2.14,10.58-1.85,15.5-3.96
		C168.92,126.02,165.8,124.87,162.8,125.11z M109.78,199.89c-0.82,0.22-1.97,0.38-1.92,1.45c0.06,1.4,1.41,1.04,2.31,1.28
		c3.98,1.04,7.89-0.91,11.88-0.22c8.76,1.5,17.67-0.98,26.43,0.87c0.81,0.17,1.74-0.12,2.59-0.32c0.45-0.1,1.07-0.36,1.21-0.71
		c0.27-0.7-0.35-1.08-0.92-1.37c-3.05-1.61-6.25-2.7-9.72-1.98c-5.08,1.04-10.19,0.97-15.3,0.69c-2.97-0.17-5.92-0.81-8.66-1.2
		C114.8,198.32,112.31,199.21,109.78,199.89z M132.07,179.98c-0.13-2.11-2.16-1.89-3.79-1.01c-1.25,0.68-1.38-0.54-1.92-1.11
		c-2.85-2.99-5.25-2.79-7.58,0.67c-0.49,0.73-1.76,1.46-0.66,2.52c0.81,0.78,1.91,0.57,2.79-0.01c1.72-1.13,3.27-0.91,4.81,0.32
		c0.71,0.56,1.56,0.76,2.74,0.64C129.59,181.44,132.19,181.95,132.07,179.98z M124.28,212.18c-0.59,0.03-1.35-0.05-1.55,0.7
		c-0.2,0.75,0.43,1.2,0.99,1.35c4.18,1.13,8.36,2.49,12.72,0.86c0.68-0.25,1.61-0.4,1.61-1.29c0-1.18-1.12-1.33-1.91-1.3
		c-3.1,0.12-6.18,0.13-8.61-0.33C126.02,212.17,125.15,212.13,124.28,212.18z M142.02,178.33c0.13-1.81-1.53-2.4-3.13-2.44
		c-1.62-0.04-3.29,0.63-3.31,2.3c-0.04,2.22,1.96,1.14,3.19,1.32C139.88,179.18,141.86,180.53,142.02,178.33z M160.06,225.49
		c-0.78,0.91-0.55,1.88,0.51,2.47c1.01,0.57,1.76,0,1.97-0.93c0.32-1.37,1.47-2.59,0.87-4.24
		C161.67,223,160.98,224.43,160.06,225.49z M59.58,128.86c-1.08-0.23-1.63,0.41-1.61,1.41c0.02,0.98,0.14,2.06,1.53,1.97
		c0.86-0.06,1.69-0.3,1.88-1.47C61.25,129.77,60.62,129.08,59.58,128.86z M201.88,128.38c-1,0.04-1.63,0.73-1.64,1.64
		c-0.01,1.2,1.09,1.12,1.89,1.17c0.8,0.05,1.45-0.25,1.41-1.25C203.38,129.01,202.92,128.33,201.88,128.38z"/>
</svg>
